/* XPM */
static const char * analysis_tool_xpm[] = {
"22 22 7 1",
" 	c None",
".	c #000000",
"+	c #FFFFFF",
"@	c #373737",
"#	c #262626",
"$	c #151515",
"%	c #2E2E2E",
"                      ",
"                      ",
"                      ",
"                      ",
"                      ",
"      .........       ",
"     .+++++++++.      ",
"    @+++++++++++.     ",
"   #+++++++++++++.    ",
"  $+++++++++++++++%   ",
"  $+++++++++++++++%   ",
"  $+++++++++++++++%   ",
"  $+++++++++++++++%   ",
"   #+++++++++++++.    ",
"    @+++++++++++.     ",
"     .+++++++++.      ",
"      .........       ",
"                      ",
"                      ",
"                      ",
"                      ",
"                      "};
