/* XPM */
static const char * display_tool_xpm[] = {
"22 22 7 1",
" 	c None",
".	c #000000",
"+	c #FFFFFF",
"@	c #FEFEFE",
"#	c #101010",
"$	c #0E0E0E",
"%	c #040404",
"                      ",
"                      ",
"                      ",
"    .............     ",
"   .+++++++++++++.    ",
"  .++@+++++++++@++.   ",
"  #+@+++++++++++@+.   ",
"  #+++++++++++++++.   ",
"  #+++++++++++++++.   ",
"  #+++++++++++++++.   ",
"  #+++++++++++++++.   ",
"  #+++++++++++++++.   ",
"  #+++++++++++++++.   ",
"  #+++++++++++++++.   ",
"  #+@+++++++++++@+.   ",
"  $++@+++++++++@++.   ",
"   %+++++++++++++.    ",
"    .............     ",
"                      ",
"                      ",
"                      ",
"                      "};
