/* XPM */
static const char * dsam_xpm[] = {
"32 31 2 1",
" 	c None",
".	c #000000",
"                                ",
"                                ",
"                                ",
"                                ",
"                                ",
"                                ",
"                                ",
"       . .               .      ",
"       ...               ...    ",
"      ....               ...    ",
"      .. ..  .       .. ....    ",
"      ..........   ...... ..    ",
"      ..........   .........    ",
"      ..........   .........    ",
"       ..   ....  .....   ..    ",
"       ..      .  ..      .     ",
"       ..       . .       .     ",
"        .                 ..    ",
"                          . .   ",
"         ..             ..    . ",
"         .....          ..      ",
"         .....          .      .",
"                               .",
"                                ",
"                              . ",
"                  ...        .  ",
"                  ........  .   ",
"                  ......        ",
"                  ....          ",
"                   ..           ",
"                                "};
