/* XPM */
static const char * filter_tool_xpm[] = {
"22 22 18 1",
" 	c None",
".	c #010101",
"+	c #121212",
"@	c #0F0F0F",
"#	c #070707",
"$	c #000000",
"%	c #040404",
"&	c #0E0E0E",
"*	c #101010",
"=	c #181818",
"-	c #FFFFFF",
";	c #171717",
">	c #FEFEFE",
",	c #1B1B1B",
"'	c #1A1A1A",
")	c #111111",
"!	c #090909",
"~	c #050505",
"                      ",
"  .+@#$       %&*+%   ",
"  =---$$$   $+$---$   ",
"  ;->---$$$$$-->--$   ",
"  ;-->->---->-->--$   ",
"  &---------------$   ",
"  $$,-----------$$$   ",
"    '-----------$     ",
"    '-----------$     ",
"    '-----------$     ",
"    '-----------$     ",
"    '-----------$     ",
"    '-----------$     ",
"    '-----------$     ",
"  $$,-----------$$$   ",
"  #---------------$   ",
"  ;-->>------>->--$   ",
"  ;-----$$$$$--->-$   ",
"  =---$$$   $$$---$   ",
"  .)!$        $~&+%   ",
"                      ",
"                      "};
