/* XPM */
static const char * model_tool_xpm[] = {
"22 22 15 1",
" 	c None",
".	c #000000",
"+	c #282828",
"@	c #232323",
"#	c #1F1F1F",
"$	c #0D0D0D",
"%	c #FFFFFF",
"&	c #070707",
"*	c #151515",
"=	c #242424",
"-	c #212121",
";	c #090909",
">	c #252525",
",	c #222222",
"'	c #121212",
"                      ",
"                      ",
"                      ",
"  .+@@@@@@@@@#.       ",
"  $%%%%%%%%%%%%.      ",
"  &%%%%%%%%%%%%%.     ",
"  *%%%%%%%%%%%%%%.    ",
"  ...%%%%%%%%%%%%%&   ",
"    .%%%%%%%%%%%%%=   ",
"    .%%%%%%%%%%%%%-   ",
"    .%%%%%%%%%%%%%-   ",
"    .%%%%%%%%%%%%%-   ",
"    .%%%%%%%%%%%%%-   ",
"    .%%%%%%%%%%%%%=   ",
"  -..%%%%%%%%%%%%%&   ",
"  .%%%%%%%%%%%%%%.    ",
"  ;%%%%%%%%%%%%%.     ",
"  $%%%%%%%%%%%%.      ",
"  .>---------,'       ",
"                      ",
"                      ",
"                      "};
