/* XPM */
static const char * transform_tool_xpm[] = {
"22 22 8 1",
" 	c None",
".	c #000000",
"+	c #0D0D0D",
"@	c #0C0C0C",
"#	c #FFFFFF",
"$	c #FEFEFE",
"%	c #282828",
"&	c #232323",
"                      ",
"                      ",
"     .+@@@@@@@+.      ",
"    .###########.     ",
"    .###########.     ",
"    .###########.     ",
"    .###########.     ",
"    .###########.     ",
"   .#############+    ",
"   .###########$#.    ",
"   .#############.    ",
"   .#############.    ",
"   .#############.    ",
"   .#############.    ",
"  .###############.   ",
"  .###############.   ",
"  .###############.   ",
"  .###############.   ",
"  .%&&&&&&&&&&&&&%.   ",
"                      ",
"                      ",
"                      "};
