/* XPM */
static const char * user_tool_xpm[] = {
"22 22 20 1",
" 	c None",
".	c #000000",
"+	c #0D0D0D",
"@	c #0C0C0C",
"#	c #333333",
"$	c #0E0E0E",
"%	c #FFFFFF",
"&	c #FCFCFC",
"*	c #292929",
"=	c #101010",
"-	c #FAFAFA",
";	c #FEFEFE",
">	c #F1F1F1",
",	c #191919",
"'	c #606060",
")	c #FBFBFB",
"!	c #FDFDFD",
"~	c #090909",
"{	c #272727",
"]	c #1F1F1F",
"                      ",
"                      ",
"  .+@.       #        ",
"  $%&.       *=       ",
"  @%-...........      ",
"  @%%%%%%%%%%%%.      ",
"  @%%%%%%%%%%;%>.     ",
"  @%%%%%%%%%%%%%.     ",
"  @%%%%%%%%%%%%%%.    ",
"  @%%%%%%%%%%%%%%..   ",
"  @%%%%%%%%%%%%%%%..  ",
"  @%%%%%%%%%%%%%%.,'  ",
"  @%%%%%%%%%%%%%%.    ",
"  @%%%%%%%%%%%%%.     ",
"  @%%%%%%%%%%%%%.     ",
"  @%%%%%%%%%%%%.      ",
"  @%)...........      ",
"  $%!.       .~       ",
"  .{].       .        ",
"                      ",
"                      ",
"                      "};
