/* XPM */
static const char * utility_tool_xpm[] = {
"22 22 15 1",
" 	c None",
".	c #000000",
"+	c #121212",
"@	c #111111",
"#	c #101010",
"$	c #131313",
"%	c #060606",
"&	c #FFFFFF",
"*	c #232323",
"=	c #1F1F1F",
"-	c #070707",
";	c #242424",
">	c #363636",
",	c #323232",
"'	c #383838",
"                      ",
"                      ",
"                      ",
"  .+@@@@@@@@@@@@#$.   ",
"  %&&&&&&&&&&&&&&&*   ",
"  %&&&&&&&&&&&&&&&=   ",
"  %&&&&&&&&&&&&&&&=   ",
"  %&&&&&&&&&&&&&&&=   ",
"  %&&&&&&&&&&&&&&&=   ",
"  %&&&&&&&&&&&&&&&=   ",
"  %&&&&&&&&&&&&&&&=   ",
"  %&&&&&&&&&&&&&&&=   ",
"  %&&&&&&&&&&&&&&&=   ",
"  %&&&&&&&&&&&&&&&=   ",
"  %&&&&&&&&&&&&&&&=   ",
"  %&&&&&&&&&&&&&&&=   ",
"  -&&&&&&&&&&&&&&&;   ",
"  .>,,,,,,,,,,,,,'.   ",
"                      ",
"                      ",
"                      ",
"                      "};
